<svg width="512" height="512" viewBox="0 0 512 512" fill="none" xmlns="http://www.w3.org/2000/svg" role="img" aria-labelledby="title desc">
  <title id="title">ForgeStart mark</title>
  <desc id="desc">A geometric forged F mark with an amber spark.</desc>
  <rect width="512" height="512" rx="112" fill="#0f172a"/>
  <path d="M146 126C146 113.85 155.85 104 168 104H354C366.15 104 376 113.85 376 126V168C376 180.15 366.15 190 354 190H232V238H326C338.15 238 348 247.85 348 260V298C348 310.15 338.15 320 326 320H232V386C232 398.15 222.15 408 210 408H168C155.85 408 146 398.15 146 386V126Z" fill="#f8fafc"/>
  <path d="M232 190H354C366.15 190 376 180.15 376 168V126C376 113.85 366.15 104 354 104H290L232 190Z" fill="#38bdf8"/>
  <path d="M232 238H326C338.15 238 348 247.85 348 260V298C348 310.15 338.15 320 326 320H274L232 238Z" fill="#14b8a6"/>
  <path d="M352 78L370.28 119.72L412 138L370.28 156.28L352 198L333.72 156.28L292 138L333.72 119.72L352 78Z" fill="#f59e0b"/>
  <path d="M386 222L395.63 244.37L418 254L395.63 263.63L386 286L376.37 263.63L354 254L376.37 244.37L386 222Z" fill="#f59e0b"/>
</svg>
