<svg width="64" height="64" viewBox="0 0 64 64" fill="none" xmlns="http://www.w3.org/2000/svg">
  <rect width="64" height="64" rx="14" fill="#0f172a"/>
  <path d="M18 15C18 13.34 19.34 12 21 12H45C46.66 12 48 13.34 48 15V20C48 21.66 46.66 23 45 23H29V29H41C42.66 29 44 30.34 44 32V37C44 38.66 42.66 40 41 40H29V49C29 50.66 27.66 52 26 52H21C19.34 52 18 50.66 18 49V15Z" fill="#f8fafc"/>
  <path d="M29 23H45C46.66 23 48 21.66 48 20V15C48 13.34 46.66 12 45 12H36L29 23Z" fill="#38bdf8"/>
  <path d="M29 29H41C42.66 29 44 30.34 44 32V37C44 38.66 42.66 40 41 40H35L29 29Z" fill="#14b8a6"/>
  <path d="M46 7L49 14L56 17L49 20L46 27L43 20L36 17L43 14L46 7Z" fill="#f59e0b"/>
</svg>
